<svg width="24" height="25" viewBox="0 0 24 25" fill="none" xmlns="http://www.w3.org/2000/svg">
<path d="M17.3234 24.0794C16.9471 24.0794 16.5664 24.0794 16.1901 24.0794C16.1493 24.0658 16.1085 24.0477 16.0632 24.0431C13.5792 23.7485 11.7252 22.5019 10.4922 20.3307C10.4106 20.1856 10.329 20.1357 10.1613 20.1357C7.30556 20.1402 4.4498 20.1357 1.59858 20.1448C1.18155 20.1448 0.86878 20.027 0.687462 19.6371C0.687462 13.5494 0.687462 7.4571 0.687462 1.36935C0.796253 1.14724 0.959439 0.979519 1.18609 0.870728C7.27383 0.870728 13.3661 0.870728 19.4538 0.870728C19.8482 1.05205 19.9615 1.36482 19.957 1.78185C19.9434 4.6376 19.9525 7.49336 19.948 10.3446C19.948 10.5123 19.9978 10.5939 20.1428 10.6755C21.9197 11.6592 23.0983 13.1323 23.6423 15.0905C23.7602 15.5076 23.81 15.9428 23.8916 16.3734C23.8916 16.7497 23.8916 17.1304 23.8916 17.5066C23.878 17.5656 23.8553 17.6199 23.8508 17.6788C23.5743 20.6797 21.3078 23.2454 18.3659 23.8935C18.0214 23.9706 17.6724 24.0205 17.3234 24.0794ZM9.8531 18.7668C9.28646 16.1512 9.83491 13.8213 11.7342 11.9221C13.6381 10.0182 15.9635 9.46972 18.5789 10.0363C18.5789 7.43896 18.5789 4.84159 18.5789 2.24421C16.9018 2.24421 15.2382 2.24421 13.561 2.24421C13.561 2.3394 13.561 2.42099 13.561 2.50711C13.561 3.64942 13.561 4.78719 13.561 5.92949C13.561 6.59583 13.076 6.89501 12.4777 6.59584C11.8158 6.26492 11.1586 5.92949 10.5013 5.58952C10.3789 5.52606 10.2792 5.51699 10.1477 5.58499C9.4859 5.92949 8.81956 6.26492 8.15322 6.60037C7.573 6.89048 7.08344 6.58676 7.08344 5.93402C7.08344 4.78719 7.08344 3.63583 7.08344 2.48899C7.08344 2.4074 7.08344 2.3258 7.08344 2.24421C5.39266 2.24421 3.72906 2.24421 2.07001 2.24421C2.07001 7.7608 2.07001 13.2638 2.07001 18.7668C4.66739 18.7668 7.2557 18.7668 9.8531 18.7668ZM10.9999 16.9581C11.0044 20.1402 13.5882 22.724 16.7658 22.7195C19.9525 22.7195 22.5363 20.1357 22.5363 16.9581C22.5363 13.7624 19.948 11.1786 16.7568 11.1877C13.57 11.1968 10.9954 13.7715 10.9999 16.9581ZM12.2011 2.24421C10.9319 2.24421 9.6899 2.24421 8.45239 2.24421C8.45239 3.1372 8.45239 4.01659 8.45239 4.92318C8.97368 4.66027 9.46778 4.41095 9.96183 4.15711C10.2021 4.03019 10.4333 4.03019 10.6735 4.15711C11.1087 4.37923 11.5484 4.60134 11.9836 4.82346C12.047 4.85518 12.1105 4.88238 12.1966 4.92771C12.1966 4.07098 12.1966 3.25959 12.1966 2.44366C12.2011 2.3802 12.2011 2.32127 12.2011 2.24421Z" fill="#54BA4A"/>
</svg>
