<svg width="22" height="23" viewBox="0 0 22 23" fill="none" xmlns="http://www.w3.org/2000/svg">
<path d="M16.9525 3.62193H2.87978L5.89661 1.45263C6.08278 1.28614 6.1135 1.00558 5.96861 0.801967C5.82349 0.598351 5.54872 0.537158 5.33135 0.660007L1.08245 3.71576C0.955944 3.80801 0.881248 3.95537 0.881248 4.11218C0.881248 4.269 0.955944 4.41636 1.08245 4.5086L5.33135 7.55151C5.54915 7.68336 5.83154 7.62553 5.98027 7.41855C6.12898 7.21133 6.09443 6.92426 5.90064 6.7589L2.88381 4.58961H16.9525C17.9481 4.59073 18.903 4.98783 19.607 5.69429C20.3112 6.40053 20.7072 7.3583 20.7084 8.35694V11.0293C20.7072 12.0282 20.3112 12.9857 19.607 13.692C18.9029 14.3985 17.9481 14.7957 16.9525 14.7969C16.9269 14.7946 16.9013 14.7946 16.876 14.7969V10.3899C16.8753 10.342 16.8668 10.2945 16.8505 10.2493V10.211C16.8265 10.1723 16.7961 10.1377 16.7612 10.1086L16.7271 10.0745C16.7013 10.051 16.6728 10.0313 16.6423 10.0148H16.5997C16.5523 9.99614 16.5019 9.98598 16.4509 9.9851H5.37792C5.28013 9.98582 5.18569 10.0205 5.11033 10.083L1.28622 13.2154C1.20771 13.2946 1.15814 13.3986 1.14603 13.5097V22.5707C1.14603 22.6839 1.19066 22.7921 1.27052 22.8722C1.35014 22.9521 1.45826 22.9969 1.57086 22.9969H12.7203C12.7743 22.9957 12.8277 22.9842 12.8775 22.9629C12.9215 22.9359 12.9652 22.9089 13.0092 22.8819L16.7355 19.4041C16.8218 19.3237 16.8712 19.211 16.8717 19.0929V15.7602C16.897 15.7623 16.9225 15.7623 16.9481 15.7602C18.1997 15.7602 19.4004 15.263 20.2875 14.377C21.1745 13.4913 21.6757 12.2892 21.6813 11.0337V8.36566C21.6801 7.10802 21.1815 5.90213 20.2951 5.01273C19.4084 4.12339 18.2063 3.62308 16.9525 3.62193ZM5.5309 10.8249H15.2821L14.4322 11.5408H4.65977L5.5309 10.8249ZM12.5546 13.0921H2.74369L3.63194 12.3889H13.4044L12.5546 13.0921ZM12.2828 22.1357H1.97917V13.9445H12.2954L12.2828 22.1357ZM13.1326 21.5816V13.7267L16.0093 11.3058L16.0091 18.9051L13.1326 21.5816Z" fill="#FFAA05"/>
</svg>
