<?xml version="1.0" encoding="utf-8"?>
<!-- Generator: Adobe Illustrator 24.0.0, SVG Export Plug-In . SVG Version: 6.00 Build 0)  -->
<svg version="1.1" id="Layer_1" xmlns="http://www.w3.org/2000/svg" xmlns:xlink="http://www.w3.org/1999/xlink" x="0px" y="0px"
	 viewBox="0 0 578 746" style="enable-background:new 0 0 578 746;" xml:space="preserve">
<style type="text/css">
	.st0{fill:#EA818D;stroke:#1D2831;stroke-width:2.4;stroke-linecap:round;stroke-linejoin:round;stroke-miterlimit:10;}
	.st1{fill:#1D2831;}
	.st2{fill:#3C6574;stroke:#1D2831;stroke-width:2.4;stroke-linecap:round;stroke-linejoin:round;stroke-miterlimit:10;}
	.st3{fill:#F1A370;stroke:#1D2831;stroke-width:2.4;stroke-linecap:round;stroke-linejoin:round;stroke-miterlimit:10;}
	.st4{fill:#B65962;stroke:#1D2831;stroke-width:2.4;stroke-linecap:round;stroke-linejoin:round;stroke-miterlimit:10;}
	.st5{fill:#FFFFFF;stroke:#0C1E7F;stroke-width:2.4;stroke-linecap:round;stroke-linejoin:round;stroke-miterlimit:10;}
	.st6{fill:#6CE5D5;}
	.st7{fill:none;stroke:#1D2831;stroke-width:2.4;stroke-linecap:round;stroke-linejoin:round;stroke-miterlimit:10;}
	.st8{fill:#293440;stroke:#1D2831;stroke-width:2.4;stroke-linecap:round;stroke-linejoin:round;stroke-miterlimit:10;}
	.st9{fill:#FFFFFF;stroke:#1D2831;stroke-width:2.4;stroke-linecap:round;stroke-linejoin:round;stroke-miterlimit:10;}
	.st10{fill:none;stroke:#6CE5D5;stroke-width:7.2;stroke-linecap:round;stroke-linejoin:round;stroke-miterlimit:10;}
</style>
<g>
	<path class="st0" d="M418.14,569.61c0,0-23.79-219.5-40.77-250.08c-16.99-30.58-33.3-45.53-85.29-45.53s-68.3,14.95-85.29,45.53
		s-40.77,250.08-40.77,250.08s-20.39,135.92,17.67,154.94c38.06,19.03,84.95,16.31,108.39,16.31c23.45,0,70.34,2.72,108.39-16.31
		C438.52,705.52,418.14,569.61,418.14,569.61z"/>
	<ellipse class="st1" cx="291.78" cy="286.59" rx="56.03" ry="28.18"/>
	<g>
		<path class="st2" d="M222.83,296.25c-5.94,6.37-10.96,14.12-16.04,23.27c-16.99,30.58-40.77,250.08-40.77,250.08
			s-20.39,135.92,17.67,154.94s84.95,16.31,108.39,16.31V358.05L222.83,296.25z"/>
		<path class="st2" d="M418.14,569.61c0,0-23.79-219.5-40.77-250.08c-5.08-9.15-10.11-16.9-16.04-23.27l-69.24,61.79v382.81
			c23.45,0,70.34,2.72,108.39-16.31S418.14,569.61,418.14,569.61z"/>
	</g>
	<path class="st1" d="M421.28,596.9c-47.92-0.11-86.41-42.55-86.41-42.55s-65.46,34.54-108.55,42.76
		c-43.09,8.22-64.47,11.54-64.47,11.54l2.98-34.49l169.38-48.1l83.67,41.3L421.28,596.9z"/>
	<g>
		<circle class="st3" cx="315.18" cy="383.19" r="8.49"/>
		<circle class="st3" cx="315.18" cy="447.61" r="8.49"/>
		<circle class="st3" cx="315.18" cy="512.04" r="8.49"/>
		<circle class="st3" cx="315.18" cy="576.46" r="8.49"/>
		<circle class="st3" cx="315.18" cy="640.88" r="8.49"/>
		<circle class="st3" cx="315.18" cy="705.31" r="8.49"/>
	</g>
	<g>
		<g>
			<g>
				<path class="st0" d="M426.75,153.37c21.41,2.38,28.88,32.96,19.71,53.01c-9.17,20.05-24.12,30.24-40.09,26.5
					c-15.97-3.74-30.58-27.18-25.48-41.11C385.98,177.83,405.35,150.99,426.75,153.37z"/>
				<g>
					<line class="st0" x1="427.47" y1="184.59" x2="406.33" y2="205.73"/>
					<line class="st0" x1="427.47" y1="205.73" x2="406.33" y2="184.59"/>
				</g>
			</g>
			<g>
				<path class="st0" d="M157.4,153.37c-21.41,2.38-28.88,32.96-19.71,53.01c9.17,20.05,24.12,30.24,40.09,26.5
					c15.97-3.74,30.58-27.18,25.48-41.11C198.17,177.83,178.81,150.99,157.4,153.37z"/>
				<g>
					<line class="st0" x1="156.68" y1="184.59" x2="177.83" y2="205.73"/>
					<line class="st0" x1="156.68" y1="205.73" x2="177.83" y2="184.59"/>
				</g>
			</g>
		</g>
		<g>
			<path class="st0" d="M292.08,10.32c57.54,0,104.3,46.43,104.69,103.97l-2.73,99.25c0,46.53-31.63,80.16-78.15,80.16h-47.62
				c-46.53,0-78.15-33.64-78.15-80.16l-2.73-99.25C187.78,56.75,234.54,10.32,292.08,10.32L292.08,10.32z"/>
			<path class="st4" d="M297.1,230.5c17.67,0.68,22.43,24.46-4.76,27.86c-26.19,3.27-50.85-8.67-61.16-23.79
				c-10.19-14.95,2.04-30.58,12.91-24.46C254.96,216.23,279.43,229.82,297.1,230.5z"/>
			<path class="st4" d="M242.73,225.74c5.44,6.12,22.43,17.67,55.05,19.03"/>
		</g>
		<g>
			<g>
				<circle class="st5" cx="248.24" cy="166.75" r="35.34"/>
				<path class="st6" d="M248.24,131.41c-19.52,0-35.34,15.82-35.34,35.34c0,15.36,9.8,28.42,23.48,33.29l21.47-67.3
					C254.8,131.88,251.58,131.41,248.24,131.41z"/>
				<path class="st6" d="M270.4,139.23l-20.03,62.79c2.32-0.14,4.58-0.49,6.76-1.06l18.16-56.94
					C273.82,142.27,272.18,140.66,270.4,139.23z"/>
				<circle class="st7" cx="248.24" cy="166.75" r="35.34"/>
			</g>
			<g>
				<circle class="st5" cx="335.91" cy="166.75" r="35.34"/>
				<path class="st6" d="M335.91,131.41c-19.52,0-35.34,15.82-35.34,35.34c0,15.36,9.8,28.42,23.48,33.29l21.47-67.3
					C342.46,131.88,339.24,131.41,335.91,131.41z"/>
				<path class="st6" d="M358.07,139.23l-20.03,62.79c2.32-0.14,4.58-0.49,6.76-1.06l18.16-56.94
					C361.49,142.27,359.85,140.66,358.07,139.23z"/>
				<circle class="st7" cx="335.91" cy="166.75" r="35.34"/>
			</g>
		</g>
		<path class="st7" d="M280.86,166.75c0,0,5.6-3.4,11.21-3.4c5.62,0,11.21,3.4,11.21,3.4"/>
		<g>
			<g>
				<path class="st8" d="M219.58,89.95c4.08,14.27-27.5,69-24.96,86.15l-5.56-1.26c0,0-8.21-59.07-3.45-82.85
					c4.76-23.79,14.95-37.38,19.03-45.53S215.5,75.68,219.58,89.95z"/>
				<path class="st8" d="M364.57,89.95c-4.08,14.27,27.5,69,24.96,86.15l5.56-1.26c0,0,8.21-59.07,3.45-82.85
					c-4.76-23.79-14.95-37.38-19.03-45.53S368.65,75.68,364.57,89.95z"/>
			</g>
			<path class="st8" d="M374.97,41.02c11.55,11.55-42.81,29.9-85.63,29.9s-91.06-16.31-80.19-29.9
				c10.87-13.59,25.14-36.02,80.87-36.02S363.42,29.47,374.97,41.02z"/>
		</g>
		<g>
			<line class="st7" x1="219.7" y1="150.44" x2="184.63" y2="159.53"/>
			<line class="st7" x1="364.45" y1="150.44" x2="399.53" y2="159.53"/>
		</g>
	</g>
	<g>
		<path class="st9" d="M268.71,310.82c6.8,6.8,23.11,46.89,23.11,46.89l-36.7-12.91C255.12,344.79,261.92,304.02,268.71,310.82z"/>
		<path class="st9" d="M314.92,310.82c-6.8,6.8-23.11,46.89-23.11,46.89l36.7-12.91C328.52,344.79,321.72,304.02,314.92,310.82z"/>
	</g>
	<g>
		<path class="st9" d="M364.41,286.04l-45.11,21.78c-6.26,2.41-9.4,9.41-7.05,15.69l16.14,43.03l51.65-54.37L364.41,286.04z"/>
		<path class="st9" d="M219.74,286.04l45.11,21.78c6.26,2.41,9.4,9.41,7.05,15.69l-16.14,43.03l-51.65-54.37L219.74,286.04z"/>
	</g>
	<g>
		<path class="st9" d="M204.28,338.72c-0.02-4.03-4.51-6.42-7.86-4.18c-36.8,24.54-99.37,127.73-95.57,211.41
			c2.65,58.38,52.33,55.05,76.79,45.53s5.44-102.62,5.44-102.62l-7.81,3.1c0,0,5.1-50.67,15.29-67.66
			C203.1,396.11,204.37,355.85,204.28,338.72z"/>
		<path class="st0" d="M352.3,535.75c-21.75,2.04-118.25,49.61-144.75,46.21c-26.5-3.4-11.55-91.06-11.55-91.06
			s44.17-12.23,91.06-10.19S374.05,533.72,352.3,535.75z"/>
		<path class="st9" d="M155.22,503.81c0,0,10.19-15.63,48.93-10.87"/>
		<path class="st9" d="M382.55,333.68c0,0-2.39,65.48,11.88,93.34c7.06,13.79,19.71,53.69,19.71,53.69s-7.48-7.48-15.63,0
			c-8.15,7.48-25.14,75.43-12.23,86.99c35.34,33.98,125.72,32.62,111.45-51.65S403.29,319.17,382.55,333.68z"/>
		<path class="st9" d="M445.4,497.7c-11.55-12.23-42.13-23.11-48.93-23.11c-6.8,0-6.8,11.55-6.8,11.55"/>
		<path class="st0" d="M389.68,564.98c-27.86,2.72-97.86-66.6-142.73-82.99c0,0-19.69,3.48-45.02,7.43
			c2.22-14.82,36.2-51.52,96-44.05c59.8,7.48,102.1,29.71,102.1,29.71S406.67,562.26,389.68,564.98z"/>
		<path class="st9" d="M420.93,475.47c-5.83-2.76-25.74-7.91-31.13-8.57c-5.4-0.65-26.48,88.52-27.47,96.61
			c-0.98,8.1,40.21,24.05,47.28,22.17C416.69,583.8,426.76,478.23,420.93,475.47z"/>
		<path class="st9" d="M168.82,600.99c6.8,2.72,49.61-8.15,49.61-16.31s-10.19-99.22-15.63-99.22c-5.44,0-25.82,2.72-31.94,4.76
			S162.02,598.28,168.82,600.99z"/>
	</g>
	<g>
		<polygon class="st10" points="117.49,239.79 6.51,239.79 6.51,347.69 62,378.44 117.49,347.69 		"/>
		<g>
			<path class="st10" d="M45.53,290.36h32.95v-6.59c0-9.1-7.38-16.47-16.47-16.47h0c-9.1,0-16.47,7.38-16.47,16.47V290.36z"/>
			<circle class="st10" cx="62" cy="310.12" r="7.69"/>
			
				<rect x="38.94" y="290.36" transform="matrix(-1 -1.224647e-16 1.224647e-16 -1 124 620.2482)" class="st10" width="46.13" height="39.54"/>
		</g>
	</g>
	<g>
		<polygon class="st10" points="571.49,239.79 460.51,239.79 460.51,347.69 516,378.44 571.49,347.69 		"/>
		<g>
			<path class="st10" d="M499.53,290.36h32.95v-6.59c0-9.1-7.38-16.47-16.47-16.47l0,0c-9.1,0-16.47,7.38-16.47,16.47V290.36z"/>
			<circle class="st10" cx="516" cy="310.12" r="7.69"/>
			
				<rect x="492.94" y="290.36" transform="matrix(-1 -1.224647e-16 1.224647e-16 -1 1032 620.2482)" class="st10" width="46.13" height="39.54"/>
		</g>
	</g>
</g>
</svg>
