<?xml version="1.0" encoding="utf-8"?>
<!-- Generator: Adobe Illustrator 24.0.0, SVG Export Plug-In . SVG Version: 6.00 Build 0)  -->
<svg version="1.1" id="Layer_1" xmlns="http://www.w3.org/2000/svg" xmlns:xlink="http://www.w3.org/1999/xlink" x="0px" y="0px"
	 viewBox="0 0 762 800" style="enable-background:new 0 0 762 800;" xml:space="preserve">
<style type="text/css">
	.st0{fill:#E24B5A;stroke:#1D2831;stroke-width:2.4;stroke-linecap:round;stroke-linejoin:round;stroke-miterlimit:10;}
	.st1{fill:#1D2831;}
	.st2{fill:#815FAE;stroke:#1D2831;stroke-width:2.4;stroke-linecap:round;stroke-linejoin:round;stroke-miterlimit:10;}
	.st3{fill:#4B6DB0;stroke:#1D2831;stroke-width:2.4;stroke-linecap:round;stroke-linejoin:round;stroke-miterlimit:10;}
	.st4{fill:#F1A370;stroke:#1D2831;stroke-width:2.4;stroke-linecap:round;stroke-linejoin:round;stroke-miterlimit:10;}
	.st5{fill:none;stroke:#1D2831;stroke-width:2.4;stroke-linecap:round;stroke-linejoin:round;stroke-miterlimit:10;}
	.st6{fill:#3C6574;stroke:#1D2831;stroke-width:2.4;stroke-linecap:round;stroke-linejoin:round;stroke-miterlimit:10;}
	.st7{fill:#6CE5D5;stroke:#1D2831;stroke-width:2.4;stroke-linecap:round;stroke-linejoin:round;stroke-miterlimit:10;}
	.st8{fill:#FFFFFF;stroke:#1D2831;stroke-width:2.4;stroke-linecap:round;stroke-linejoin:round;stroke-miterlimit:10;}
	.st9{fill:#EA818D;stroke:#1D2831;stroke-width:2.4;stroke-linecap:round;stroke-linejoin:round;stroke-miterlimit:10;}
</style>
<g>
	<g>
		<path class="st0" d="M699.23,634.41c-9.73-14.59-84.31-32.43-109.17-27.56s-41.62-12.43-75.66-19.46
			c-34.05-7.03-137.28,5.95-145.92,35.67c-8.65,29.73,25.94,47.02,51.34,54.59s155.65-3.24,172.41-7.03s14.59,9.19,32.97,3.78
			c18.38-5.4,25.4-18.38,36.21-21.08C672.2,650.63,708.95,649.01,699.23,634.41z"/>
		<path class="st1" d="M664.23,654.79c-0.32-1.62-35.34-5.51-46.37-7.46c-11.02-1.95,1.95-7.13-6.16-14.59
			c-8.11-7.46-32.75,5.51-44.1,0c-11.35-5.51-121.59-12-145.91-5.84c-24.32,6.16-33.07,27.89-33.07,27.89l56.64,25.48
			c0,0,152.98-9.53,156.63-9.89c3.65-0.36,6.76,4.44,16.88,5.29C628.89,676.52,664.55,656.42,664.23,654.79z"/>
		<path class="st2" d="M695.18,642.52c0.54-9.73-29.73-7.03-32.97-13.51c-3.24-6.49,10.81-14.05,0-22.16
			c-10.81-8.11-39.99-14.05-59.45-11.89s-32.43-10.81,3.24-16.21s71.88,5.4,81.61,13.51c9.73,8.11,3.78,17.84,27.56,23.78
			c23.78,5.95,26.48,30.27,18.38,45.4c-8.11,15.13-51.88,17.29-69.72,11.89s-10.27-21.08,1.62-24.86
			C677.34,644.68,694.63,652.25,695.18,642.52z"/>
		<path class="st2" d="M632.75,706.29c-4.32,4.32,24.32,12.97,43.24,14.05c18.92,1.08,39.45-4.86,27.02-15.67
			C690.58,693.86,637.07,701.97,632.75,706.29z"/>
		<path class="st2" d="M357.2,571.88c2.03,6.77-13.53,9.14-18.27,7.44c-4.74-1.69-12.52,0-15.9,3.05
			c-3.38,3.05-0.34,7.11-2.03,10.83c-1.69,3.72-8.8,3.38-16.58,8.46c-7.78,5.08-3.05,19.96-6.09,20.98
			c-3.05,1.02-10.15-15.9-5.08-23.35s15.9-5.75,16.58-14.21s1.35-14.55,15.56-16.92C339.61,565.79,355.17,565.11,357.2,571.88z"/>
		<path class="st2" d="M581.41,738.72c10.81-2.16,18.92,8.65,6.49,16.21s-31.35,13.51-39.45,10.27c-0.54,5.95-1.62,17.29-20,17.29
			c-18.38,0-18.92-11.35-17.84-17.29c-16.75,0.54-51.34-15.67-42.16-20c9.19-4.32,45.4,0.54,65.4,0.54
			C553.84,745.75,570.6,740.88,581.41,738.72z"/>
		<path class="st2" d="M380.89,722.51c0,9.19-23.78,11.35-38.91,9.19c-15.13-2.16-38.37-43.78-24.32-43.78
			c14.05,0,25.4,16.21,25.4,16.21C359.82,701.43,380.89,713.32,380.89,722.51z"/>
	</g>
	<g>
		<path class="st0" d="M490.25,225.18c68.52-45.33,173.94,0.35,175.7,7.73c1.76,7.38-41.82,45.33-37.25,63.95
			c60.79-19.33,117.72,80.47,114.56,86.44s-65.01,10.89-74.5,23.19c70.63,27.76,51.66,146.53,45.68,151.1
			c-5.97,4.57-40.06-31.63-61.5-27.06c26.71,17.57,37.95,121.58,33.38,126.86c-4.57,5.27-64.66-28.11-64.66-28.11
			S456.14,247.74,490.25,225.18z"/>
		<g>
			<path class="st3" d="M409.07,668.29c-2.11-70.28,99.8-107.53,97.69-178.51c-2.11-70.98-131.54-112.42-151.86-114.89
				c-20.32-2.47-45.93-162.22-45.93-162.22c23.67-7.21,69.83-11.01,112.23-9.26c67.23,2.78,123.59,18.15,167.49,45.68
				c52.43,32.88,85.11,82.08,94.53,142.28c6.82,43.65,4.27,85.16-7.8,126.92c-9.81,33.92-24.47,62.48-36.25,85.43
				c-23.3,45.39-22.86,50.08-17.21,62.6L515.2,678.84L409.07,668.29z"/>
		</g>
		<path class="st4" d="M568.61,453.24c-17.74-103.16-179.83-136.28-236.47-128.1c7.3,27.2,15.37,48.85,22.76,49.75
			c20.32,2.47,149.76,43.91,151.86,114.89c2.11,70.98-99.8,108.23-97.69,178.51l101.91,11.95
			C506.06,613.48,586.68,558.32,568.61,453.24z"/>
		<g>
			<path class="st5" d="M420.87,625.47c0,0,40.91,42.83,90.11,44.23"/>
			<path class="st5" d="M480.51,553.74c9.38,26,40.45,43.8,57.95,40.52"/>
			<path class="st5" d="M506.76,489.78c11.95,34.44,56.93,18.98,63.95,14.06"/>
			<path class="st5" d="M487.08,445.51c36.55,7.03,54.82-30.92,52.01-49.9"/>
			<path class="st5" d="M429.45,401.93c27.41-3.51,48.49-31.63,44.28-50.6"/>
			<path class="st5" d="M387.29,384.36c28.81-11.95,31.63-39.36,28.81-52.01"/>
		</g>
		<path class="st1" d="M544.14,226.93c-15.76,8.37-32.76,31.37-32.76,31.37s36-12,49-14c3,14-24,55-34,62s-28,53-39,58
			s-40.8,40.62-46.4,46.31s-42.6-17.31-42.6-17.31l91-145l31.53-29.28C520.91,219.03,535.9,222.56,544.14,226.93z"/>
	</g>
	<g>
		<path class="st4" d="M203.85,262.08c35.84-66.06,181.32-157.43,204.52-178.51s33.03-59.74,35.14-63.95s17.57-2.11,13.35,14.06
			c-4.22,16.16-24.6,86.44-24.6,104.01S276.24,278.24,276.24,278.24"/>
		<path class="st4" d="M305.41,183.71c-1.76,6.68,10.19-46.03,11.24-51.3c1.05-5.27-5.97-15.11-2.81-17.57
			c3.16-2.46,20.73-10.89,23.9-2.81c3.16,8.08-3.6,31.6,11.73,16.33"/>
	</g>
	<path class="st6" d="M487.44,169.66c38.89-6.72,79.77-10.19,113.85-19.68c34.09-9.49,52.71-33.03,52.71-33.03
		s-20.03,53.76-55.52,67.47c-35.49,13.7-113.5,74.15-124.4,94.88c-10.89,20.73-86.44,9.14-86.44,9.14"/>
	<path class="st6" d="M366.9,210.07c26.71-49.2,175.7-78.01,213.3-140.91c4.57,20.73-81.88,112.8-91.36,127.91
		c-9.49,15.11-11.95,55.52-11.95,55.52"/>
	<path class="st3" d="M349.38,286.31c31.63-9.14,84.29-15.8,102.56-14.39c18.27,1.41,98.39-39.36,98.39-39.36s4.22,6.33,0,19.68
		s-35.14,39.36-39.36,46.38c-4.22,7.03-58.6,70.68-123.6,88.68"/>
	<path class="st1" d="M489.19,286.67c-16.16,11.24-41.47,3.51-50.6,18.98c-9.14,15.46-66.06,32.33-78.71,36.55
		c-12.65,4.22-27.41,36.55-27.41,36.55c47.79-6.33,96.28-37.95,113.15-46.38S474.43,302.84,489.19,286.67z"/>
	<g>
		<path class="st7" d="M113.54,519.65c-10.89,4.57-10.19,23.54-27.41,28.11c10.89,5.27,23.19,5.62,23.19,5.62
			c-4.57,17.22,2.11,32.33,0.35,39.71c-1.76,7.38-17.92,7.38-17.92,7.38c24.25,19.33,37.6,3.16,56.22-17.57s95.23-67.12,125.1-76.61
			c29.87-9.49,86.09-3.87,110.34,2.81c24.25,6.68,59.04-12.65,59.04-12.65s-36.19-8.08-36.55-11.24
			c-0.35-3.16,56.58-3.87,74.5-27.41c-35.49,5.97-51.3-26-51.3-26s30.57,8.79,42.17-7.73c11.6-16.52,43.93-24.25,35.14-28.11
			c-8.79-3.87-22.84,3.16-30.57,1.76c-7.73-1.41-28.81-11.95-46.74-7.38c10.19-8.79,44.54-28,44.54-28
			c5.71-8.89,27.5-17.33,30.66-26.11c-29.87,8.08-71.69,12.65-71.69,12.65s16.52-22.14,16.16-28.81
			c-19.33,24.25-56.22,38.65-56.22,38.65s15.81-46.03,14.76-52.71c-11.6,49.55-69.23,48.84-88.55,61.85s-94.88,105.42-94.88,105.42
			S124.44,515.08,113.54,519.65z"/>
		<path class="st7" d="M286.79,493.3c-8.43,11.95,7.03,24.6,34.44,19.68c-16.16,21.79-45.68,15.46-45.68,15.46s7.73,8.43,18.27,8.43
			c-14.06,13.35-44.28-3.51-44.28-3.51s33.73,26,29.52,65.36c-14.06-25.3-33.03-35.14-67.47-28.81c-4.92,3.51-4.92,26,2.81,42.87
			s0.7,28.81-2.81,32.33c-1.41-21.08-16.87-36.55-22.49-36.55s-18.98-14.76-16.16-30.22c-15.46,11.95-6.33,56.22-22.49,64.66
			c12.65-22.49-27.41-56.93-30.92-82.93"/>
	</g>
	<path class="st1" d="M116.71,544.6c-11.95-51.3,29.52-63.95,78.71-88.55s46.38-61.14,103.31-79.42s85.04,34.44,56.93,73.79
		s-96.28,7.03-139.86,66.77C191.45,550.58,122.12,567.83,116.71,544.6z"/>
	<path class="st2" d="M110.03,153.49c-15.11,15.81-15.11,46.03,0,54.82c15.11,8.79,28.81,14.06,27.76,29.87s-26,53.41-29.87,78.36
		c-5.46,35.21,41.11,46.03,46.38,46.38c5.27,0.35-19.33,20.73-23.19,21.08c-3.87,0.35-43.93-26.36-44.98-59.74
		c-1.05-33.38,35.49-67.82,33.73-86.44s-27.76-17.92-29.52-43.57S102.65,160.87,110.03,153.49z"/>
	<path class="st4" d="M511.68,17.5c4.92,0,7.73,9.14,9.14,18.98s-14.06,44.98-31.63,75.9c-17.57,30.92-74.5,99.1-87.15,109.64
		c-12.65,10.54-69.58,40.06-69.58,40.06h-85.04c0,0,91.36-72.39,107.53-94.88c16.16-22.49,11.95-43.57,11.95-43.57
		s18.98-7.03,24.6-2.11S390.1,143.3,402.04,144c30.22-9.84,63.25-56.22,72.39-68.17C485.68,73.72,499.73,17.5,511.68,17.5z"/>
	<g>
		<path class="st8" d="M268.51,468.7c-1.41-6.33-23.19-23.9-28.81-22.49s-11.95,31.63-8.43,39.36
			C234.78,493.3,269.92,475.02,268.51,468.7z"/>
		<path class="st8" d="M203.85,511.57c-13.35-2.81-21.08-26-27.41-26c-6.33,0-17.57,35.14-6.33,50.6c0,0,10.54,2.81,20.38-4.92
			C200.34,523.52,203.85,511.57,203.85,511.57z"/>
		<path class="st8" d="M142.71,499.62c4.92,4.22,19.68,35.14,19.68,39.36s-16.16,9.14-23.19,9.14c-7.03,0-18.27-14.76-18.27-14.76
			C121.63,515.08,137.79,495.41,142.71,499.62z"/>
		<path class="st8" d="M231.26,431.45c4.92,4.22-12.65,43.57-17.57,47.09s-30.92-21.79-30.22-27.41S226.34,427.23,231.26,431.45z"/>
		<path class="st8" d="M183.47,458.16c3.51,2.11-8.43,40.06-13.35,41.47s-30.22-27.41-27.41-33.73
			C145.52,459.56,179.96,456.05,183.47,458.16z"/>
		<path class="st8" d="M135.68,462.37c0,7.03-0.7,35.14-9.14,37.25s-44.28-30.22-32.33-51.3
			C113.9,442.7,135.68,455.35,135.68,462.37z"/>
	</g>
	<path class="st3" d="M309.27,226.93c0,0-54.82,15.46-79.42,32.33s-5.62,60.44-17.57,73.09c-11.95,12.65-126.5,46.38-126.5,46.38
		s-16.16,42.17,27.41,72.39s106.12-10.54,126.73-30.14c20.61-19.6,45.92-55.6,119.01-62.63l12.45-48.05"/>
	<path class="st0" d="M179.26,319.7c0,0-33.03,56.22-101.2,53.41c-16.16,11.24,12.65,54.12,39.36,54.12s113.85-65.36,113.85-65.36
		l-37.95-48.49L179.26,319.7z"/>
	<g>
		<path class="st5" d="M155.04,346.78c0,0,30.72,29.37,35.55,43.67"/>
		<path class="st5" d="M126.53,364.36c0,0,26.82,25.42,31.69,46.25"/>
	</g>
	<path class="st9" d="M120.57,504.89c-10.89,18.62,3.16,39.71,26.71,36.55c23.54-3.16,70.63-57.98,92.77-74.5
		s69.93-10.89,89.26-13.35s29.87-33.38,24.6-51.3c-5.27-17.92-50.95-18.62-80.12,8.43c-29.17,27.06-55.87,48.84-93.47,57.63
		c-37.6,8.79-81.88,4.57-94.18-16.16l27.76-19.33c0,0,23.19,20.38,70.63,2.46s67.82-41.82,88.55-59.74s75.55-38.3,102.61,11.95
		c27.06,50.25-6.68,83.98-29.52,91.36s-71.33-2.46-96.99,12.65c-16.12,9.49-62.9,67.82-100.15,69.93S94.22,520.71,120.57,504.89z"/>
	<path class="st3" d="M205.26,361.17c-21.08,20.38,4.22,45.68,18.27,40.06"/>
	<circle class="st4" cx="234.25" cy="352.91" r="34.26"/>
	<path class="st5" d="M227.75,324.62c0,4.04-4.22,4.04-4.22,8.08c0,4.04,4.22,4.04,4.22,8.08c0,4.04-4.22,4.04-4.22,8.08
		c0,4.04,4.22,4.04,4.22,8.08c0,4.04-4.22,4.04-4.22,8.09s4.22,4.04,4.22,8.09"/>
	<path class="st7" d="M210.53,315.84c0,0-39.71,35.49-55.52,16.87c-15.81-18.62-3.16-45.33,17.92-65.01s35.14-40.76,45.33-54.47
		c10.19-13.7,7.38-41.82,11.95-44.98c4.57-3.16,9.49,13,9.84,31.63c5.27-12.3,14.41-67.82,18.27-69.58
		c3.87-1.76,8.79,27.06,5.62,49.9s-22.84,71.33-27.41,82.23C231.97,273.32,210.53,315.84,210.53,315.84z"/>
	<g>
		<path class="st7" d="M308.92,278.59c0,0-20.38,47.09-46.03,55.87c-25.65,8.79-70.28,18.27-72.04-10.19
			c-1.76-28.46,36.19-62.36,45.33-68.96s25.3-31.9,31.98-38.57c6.68-6.68,34.79-16.52,28.81-14.06c0,0,14.41-18.62,17.57-18.27
			C317.71,184.77,308.92,278.59,308.92,278.59z"/>
		<path class="st7" d="M276.24,233.96c0,0,46.38-36.55,51.3-49.9s10.54-27.41,16.16-25.3c5.62,2.11-5.62,33.73-5.62,33.73
			c11.24-23.9,30.22-26.71,35.84-27.41c5.62-0.7-1.41,17.57-11.24,28.81c-9.84,11.24-43.71,50.78-43.71,50.78"/>
		<path class="st7" d="M285.38,283.86c-14.06,17.57-1.41,33.03,17.57,23.19c18.98-9.84,42.17-27.41,59.74-54.82
			s39.36-42.87,39.36-42.87s-14.06-7.03-23.19,0c-9.14,7.03-29.52,16.16-38.65,23.19c3.51-7.73,6.33-26-0.7-23.19
			c-7.03,2.81-10.54,30.92-30.22,35.14"/>
	</g>
	<path class="st2" d="M497.63,226.93c-15.46,0-59.04-6.33-80.82,22.49s-37.95,108.93-65.36,118.07
		c-27.41,9.14-52.71,5.62-63.95,23.19c-11.24,17.57-47.48,49.91-69.58,54.12c-29.52,5.62-56.93-35.14-93.47-12.65l-11.24-21.79
		c0,0,12.65-9.84,34.44-14.76c21.79-4.92,52.65,26.09,70.95,21.83s44.31-42.21,60.47-56.27c16.16-14.06,55.52-4.92,70.98-28.11
		c15.46-23.19,23.9-73.79,49.9-96.99C430.35,208.95,477.24,217.8,497.63,226.93z"/>
	<g>
		<path class="st9" d="M74.89,372.77c-7.38-9.49-23.54-22.84-39.36-11.24c-15.81,11.6-8.79,34.79,0,40.06"/>
		<path class="st9" d="M63.29,370.31l28.81-2.81c0,0,37.95,42.17,41.47,52.71c3.51,10.54-2.81,35.14-25.3,38.65
			s-35.14-16.87-35.14-16.87s-25.3,21.08-42.87,4.92c-17.57-16.16-15.46-51.3,7.73-56.22"/>
		<path class="st9" d="M100.54,394.9c0,0,11.11-5.94,17.86,3.36"/>
		<path class="st1" d="M73.13,441.99c0,0,19.94-20.64,23.67-22.27c3.74-1.63,24.82,8.21,17.79,20.16
			c-7.03,11.95-26.71-5.62-30.92-4.22S73.13,441.99,73.13,441.99z"/>
	</g>
	<path class="st8" d="M286.58,401.12c-4.48,2.69-8.79,5.88-12.79,9.6c-7.75,7.19-15.33,14-22.98,20.3
		c1.86,6.41,5.49,17.17,9.35,27.33c5.17,13.59,10.74,26.1,13.04,25.7c3.37-0.59,8.2-14.1,11.17-28.97
		c1.16-5.79,2.03-11.78,2.42-17.3C288,420.75,288.69,408.99,286.58,401.12z"/>
	<path class="st1" d="M413.78,640.42c18.61,6.89,45.61,15.89,107.61,13.89s93-8,101.98-17.64l-2.98,31.64c0,0-99,12-121,12
		s-89.85-13.69-89.85-13.69S411.17,644.53,413.78,640.42z"/>
	<path class="st2" d="M625.08,682.19c-14.05,8.11-91.78,6.27-96.64,11.67c-4.86,5.4,32.97,10.81,17.84,21.62
		c-15.13,10.81-49.72,5.4-85.93,6.49s-69.18-15.13-69.72-22.7c-0.54-7.57,48.64,3.24,48.64-4.86c0-8.11-83.77-13.51-96.2-23.24
		c-12.43-9.73,10.27-8.65,10.27-17.29c0-8.65-45.4,11.89-36.75-24.86s85.39-43.24,98.9-43.24c13.51,0-7.57-13.51,24.32-16.75
		c3.5-0.36,16.44-0.49,28.05-0.53c-5.37,6.33-22.23,24.61-28.42,31.37c-15.62,1.04-29.62,2.83-38.54,5.92
		c-28.1,9.73-16.21,44.32,9.73,54.05s79.99,13.51,99.99,11.89s89.62-4.11,107.99-6.81S639.14,674.08,625.08,682.19z"/>
	<path class="st2" d="M715.17,616.04c23.78,5.95,26.48,30.27,18.38,45.4c-8.11,15.13-51.88,17.29-69.72,11.89
		s-10.27-21.08,1.62-24.86c11.89-3.78,29.18,3.78,29.73-5.95"/>
</g>
</svg>
